<mxfile host="65bd71144e">
    <diagram id="aHb-ZwOeNOMBsOD3phg4" name="Page-1">
        <mxGraphModel dx="902" dy="775" grid="1" gridSize="10" guides="1" tooltips="1" connect="1" arrows="1" fold="1" page="1" pageScale="1" pageWidth="850" pageHeight="1100" math="0" shadow="0">
            <root>
                <mxCell id="0"/>
                <mxCell id="1" parent="0"/>
                <mxCell id="4" value="VoltDB" style="ellipse;whiteSpace=wrap;html=1;aspect=fixed;fontSize=14;fontStyle=1;horizontal=1;verticalAlign=top;strokeWidth=2;" vertex="1" parent="1">
                    <mxGeometry x="30" y="30" width="180" height="180" as="geometry"/>
                </mxCell>
                <mxCell id="3" value="JDK7" style="ellipse;whiteSpace=wrap;html=1;aspect=fixed;fontSize=14;fontStyle=1;verticalAlign=top;strokeWidth=2;" vertex="1" parent="1">
                    <mxGeometry x="60" y="60" width="120" height="120" as="geometry"/>
                </mxCell>
                <mxCell id="2" value="Ubuntu" style="ellipse;whiteSpace=wrap;html=1;aspect=fixed;fontSize=14;fontStyle=1;strokeWidth=2;" vertex="1" parent="1">
                    <mxGeometry x="90" y="90" width="60" height="60" as="geometry"/>
                </mxCell>
            </root>
        </mxGraphModel>
    </diagram>
</mxfile>
